<svg xmlns="http://www.w3.org/2000/svg" viewBox="0 0 297.01 59.11"><defs><style>.cls-1{fill:#2f77b5;}.cls-2{fill:#d94437;}.cls-3{fill:#eab52a;}.cls-4{fill:#489f4d;}</style></defs><title>WorkCo</title><g id="图层_2" data-name="图层 2"><g id="图层_1-2" data-name="图层 1"><path class="cls-1" d="M0,1.42H10.54l8.13,35.92,10-35.92h8.91L47.82,37.34l8-35.92H66.41L53.74,57.69H43.46L33.09,21.31,22.92,57.69H12.74Z"/><path class="cls-2" d="M93.18,15a22.11,22.11,0,0,1,11.07,2.94,21.62,21.62,0,0,1,11,18.9,21.88,21.88,0,0,1-2.93,11,21.07,21.07,0,0,1-8,8,22,22,0,0,1-11.14,2.89,20.75,20.75,0,0,1-15.28-6.37A21.11,21.11,0,0,1,71.6,36.92a21,21,0,0,1,7.15-16.26A20.89,20.89,0,0,1,93.18,15Zm.17,9.83a10.78,10.78,0,0,0-8.11,3.38A12,12,0,0,0,82,36.88a12.24,12.24,0,0,0,3.21,8.8,10.7,10.7,0,0,0,8.1,3.37,10.82,10.82,0,0,0,8.16-3.41,12.16,12.16,0,0,0,3.26-8.76,12.08,12.08,0,0,0-3.2-8.7A10.79,10.79,0,0,0,93.35,24.83Z"/><path class="cls-3" d="M121.33,16.07h9v5.24a11.16,11.16,0,0,1,3.87-4.71,9.34,9.34,0,0,1,5.28-1.6,9.63,9.63,0,0,1,4.24,1.07l-3.25,9a7.2,7.2,0,0,0-3-.92c-1.61,0-3,1-4.07,3s-1.67,5.9-1.67,11.71l0,2V57.69H121.33Z"/><path class="cls-1" d="M148.92,0h10.44V33.23l15.38-17.16h13.12L169.93,36,190,57.69H177L159.36,38.51V57.69H148.92Z"/><path class="cls-4" d="M247.16,11.3l-7.49,7.15q-7.65-8.08-17.2-8.08a18.84,18.84,0,0,0-19.11,19.11,20.09,20.09,0,0,0,2.44,10,17.56,17.56,0,0,0,6.92,6.86,20.09,20.09,0,0,0,9.94,2.49,20.32,20.32,0,0,0,8.52-1.75,30.41,30.41,0,0,0,8.49-6.33l7.26,7.57q-6.24,6.09-11.78,8.44a32.16,32.16,0,0,1-12.67,2.36q-13.11,0-21.48-8.32t-8.36-21.33a29.18,29.18,0,0,1,3.81-15A28.31,28.31,0,0,1,207.35,4a30.79,30.79,0,0,1,15.29-4,32.43,32.43,0,0,1,24.52,11.3Z"/><path class="cls-2" d="M274.93,15A22.12,22.12,0,0,1,286,17.94a21.62,21.62,0,0,1,11,18.9,21.88,21.88,0,0,1-2.93,11,21.07,21.07,0,0,1-8,8A22,22,0,0,1,275,58.76a20.75,20.75,0,0,1-15.28-6.37,21.11,21.11,0,0,1-6.33-15.47,21,21,0,0,1,7.15-16.26A20.86,20.86,0,0,1,274.93,15Zm.18,9.83A10.78,10.78,0,0,0,267,28.21a12,12,0,0,0-3.24,8.67,12.27,12.27,0,0,0,3.2,8.8,11.46,11.46,0,0,0,16.27,0,12.16,12.16,0,0,0,3.26-8.76,12.08,12.08,0,0,0-3.2-8.7A10.8,10.8,0,0,0,275.11,24.83Z"/></g></g></svg>